# xmcd
#
# Track frame offsets:
#	150
#	16263
#	27564
#	43172
#	56712
#	71470
#	89898
#	105618
#	117408
#	130967
#
# Disc length: 1941 seconds
# Revision: 0
# Processed by: cddbd v1.5.2PL0 Copyright (c) Steve Scherf et al.
# Submitted via: dBpowerAMP V12.0
#
DISCID=9107930a
DTITLE=Tim Williams - Tim Williams Solo (So Low)
DYEAR=2015
DGENRE=Blues Traditional Country
TTITLE0=If You Live
TTITLE1=Peppers In Your Chili
TTITLE2=My Big Money
TTITLE3=Anywhere
TTITLE4=Pistol Snapper
TTITLE5=The Witching Hour
TTITLE6=The Grizzly Bear
TTITLE7=Big River
TTITLE8=Midnight After Midnight
TTITLE9=Lightnin'
EXTD=
EXTT0=
EXTT1=
EXTT2=
EXTT3=
EXTT4=
EXTT5=
EXTT6=
EXTT7=
EXTT8=
EXTT9=
PLAYORDER=
